<?xml version="1.0" encoding="UTF-8" ?>
<!DOCTYPE svg PUBLIC "-//W3C//DTD SVG 1.1//EN" "http://www.w3.org/Graphics/SVG/1.1/DTD/svg11.dtd">
<svg width="425pt" height="124pt" viewBox="0 0 425 124" version="1.1" xmlns="http://www.w3.org/2000/svg">
<g id="#de0011ff">
<path fill="#de0011" opacity="1.00" d=" M 36.84 18.82 C 44.41 14.08 52.85 10.01 61.97 9.98 C 75.01 10.04 88.06 9.95 101.10 10.03 C 101.14 16.29 97.54 23.21 91.33 25.35 C 89.31 26.16 87.23 27.05 85.01 27.00 C 78.01 27.08 71.00 26.91 64.00 27.02 C 50.79 28.36 38.56 37.43 33.97 49.98 C 31.86 54.03 32.04 58.64 31.15 63.00 C 31.82 66.87 32.25 70.81 33.40 74.58 C 35.41 79.56 38.17 84.24 41.77 88.23 C 48.73 94.42 57.66 98.54 67.02 99.05 C 74.56 98.93 81.89 96.25 88.19 92.19 C 92.26 88.26 96.79 84.49 99.30 79.30 C 101.23 74.76 103.10 70.04 103.13 65.03 C 95.75 64.96 88.36 65.02 80.98 65.00 C 81.07 62.07 80.42 58.83 82.30 56.30 C 83.70 55.40 85.30 54.86 86.98 54.98 C 98.32 55.01 109.66 55.00 121.00 55.00 C 121.00 57.63 121.13 60.26 120.90 62.89 C 119.66 69.52 119.79 76.53 116.76 82.73 C 111.32 97.20 98.87 108.37 84.39 113.39 C 72.49 117.07 59.25 117.34 47.70 112.31 C 41.82 109.49 35.59 106.82 31.23 101.77 C 17.22 89.28 10.87 68.76 15.60 50.58 C 18.15 37.74 26.13 26.23 36.84 18.82 Z" />
<path fill="#de0011" opacity="1.00" d=" M 170.93 23.96 C 173.53 24.38 174.42 20.79 176.87 20.89 C 178.76 21.68 179.76 24.23 182.06 23.96 C 187.39 23.59 192.51 25.35 197.84 25.06 C 200.56 25.11 200.31 28.66 199.77 30.54 C 197.97 32.60 196.09 34.60 194.72 36.99 C 190.43 37.05 186.08 37.29 181.91 36.06 C 180.53 35.58 179.63 36.97 178.65 37.64 C 183.90 39.61 189.52 38.91 195.00 39.00 C 199.77 38.91 204.69 39.54 209.30 37.93 C 207.80 40.96 207.32 44.66 204.66 46.96 C 201.26 47.47 198.35 44.89 194.98 45.04 C 190.94 45.26 187.07 43.72 183.03 43.97 C 173.00 43.54 163.17 45.43 153.21 46.21 C 150.27 46.58 146.47 49.75 144.06 46.73 C 143.90 44.81 144.85 43.01 145.19 41.16 C 151.44 39.75 157.88 40.44 164.13 39.13 C 166.91 38.86 171.01 39.88 171.33 35.90 C 165.44 36.20 159.70 37.78 153.82 38.12 C 154.18 36.11 154.93 34.18 155.02 32.13 C 154.39 30.31 153.22 28.77 152.06 27.26 C 152.82 26.54 153.58 25.81 154.33 25.08 C 159.94 25.48 165.33 23.61 170.93 23.96 M 179.40 30.01 C 181.87 33.29 186.36 31.74 189.86 31.96 C 191.40 32.18 191.65 30.16 192.40 29.24 C 188.07 29.92 182.62 25.69 179.40 30.01 M 161.30 29.01 C 160.85 30.09 160.40 31.16 159.93 32.23 C 163.86 32.21 167.80 32.02 171.73 31.88 C 172.42 31.04 172.99 30.12 173.41 29.11 C 169.38 28.93 165.34 29.02 161.30 29.01 Z" />
<path fill="#de0011" opacity="1.00" d=" M 290.23 21.99 C 291.39 22.00 292.56 22.00 293.73 22.00 C 293.95 23.79 294.28 25.57 295.05 27.23 C 298.81 25.99 302.80 25.63 306.73 26.12 C 309.45 27.65 306.72 30.13 305.89 31.95 C 301.35 31.75 296.96 33.04 292.45 33.27 C 290.96 34.24 289.55 35.34 288.36 36.67 C 294.52 35.58 300.92 33.74 307.01 36.24 C 307.01 36.88 307.02 38.15 307.02 38.79 C 304.42 41.47 300.58 42.05 297.02 42.19 C 296.99 42.83 296.92 44.12 296.89 44.76 C 300.26 43.76 304.16 43.32 307.34 45.12 C 304.76 48.39 301.05 50.53 296.99 51.36 C 296.99 53.36 297.01 55.37 297.07 57.37 C 300.01 55.62 302.92 53.77 306.19 52.68 C 306.19 56.25 303.98 59.25 301.01 61.02 C 296.57 63.79 294.05 69.60 288.39 70.23 C 287.93 69.14 287.45 68.06 286.96 66.99 C 290.09 63.09 290.15 57.78 290.01 53.01 C 287.44 52.99 284.85 53.17 282.29 52.84 C 280.47 52.03 280.95 50.22 281.93 48.96 C 283.69 44.95 290.43 47.85 291.39 43.12 C 289.26 43.02 287.14 42.99 285.02 42.98 C 285.01 41.35 285.00 39.73 285.00 38.11 C 283.39 38.36 281.77 38.38 280.18 38.03 C 279.73 36.73 279.21 35.45 278.88 34.12 C 280.55 32.06 282.34 30.03 284.59 28.57 C 287.06 26.95 288.43 24.25 290.23 21.99 Z" />
<path fill="#de0011" opacity="1.00" d=" M 267.24 22.86 C 268.96 22.98 271.96 22.68 271.95 25.15 C 272.01 32.73 272.11 40.32 271.90 47.90 C 270.88 52.31 270.45 56.97 271.60 61.41 C 272.27 64.23 271.96 67.14 271.99 70.01 C 270.72 70.01 269.46 70.01 268.20 70.02 C 265.07 66.97 265.33 62.29 264.70 58.28 C 264.18 55.78 263.94 53.25 263.79 50.71 C 260.47 51.67 257.33 53.14 254.06 54.25 C 251.88 51.13 254.22 47.54 254.16 44.14 C 255.43 39.27 254.78 34.24 255.11 29.28 C 256.40 27.31 258.97 28.19 260.94 27.88 C 264.53 33.04 260.07 38.55 259.80 43.96 C 260.60 43.98 262.18 44.03 262.97 44.06 C 263.72 42.34 264.43 40.59 264.93 38.77 C 265.47 36.14 264.06 33.66 264.00 31.07 C 264.49 28.13 265.07 25.06 267.24 22.86 Z" />
<path fill="#de0011" opacity="1.00" d=" M 227.16 26.15 C 229.53 25.30 233.09 23.69 234.88 26.30 C 235.79 30.92 233.66 35.35 233.97 39.96 C 234.33 47.61 233.56 55.44 230.59 62.56 C 229.48 64.40 228.45 66.39 226.71 67.73 C 222.87 69.58 218.53 70.25 214.30 70.02 C 213.47 69.06 212.63 68.12 211.80 67.17 C 217.46 64.80 222.52 61.08 226.02 56.01 C 226.81 54.75 226.95 53.25 227.20 51.82 C 222.40 54.73 218.06 59.21 212.29 59.87 C 211.25 58.81 209.63 57.83 209.91 56.11 C 211.77 52.45 216.57 50.70 217.45 46.42 C 219.17 41.60 216.17 36.80 215.96 31.96 C 215.62 29.62 217.26 27.70 218.22 25.72 C 220.13 25.85 221.62 26.93 222.96 28.20 C 222.54 32.54 224.38 36.67 224.04 41.00 C 224.03 43.83 223.01 46.52 222.89 49.34 C 227.06 46.88 228.34 41.77 227.85 37.25 C 226.81 33.58 225.39 29.85 227.16 26.15 Z" />
<path fill="#de0011" opacity="1.00" d=" M 248.11 24.97 C 249.74 24.98 251.36 24.99 252.99 25.00 C 252.95 28.19 253.30 31.44 252.60 34.59 C 251.21 39.83 252.70 45.32 251.61 50.59 C 250.62 54.42 251.32 58.45 250.31 62.28 C 249.77 64.11 250.56 66.60 248.70 67.79 C 248.04 67.91 246.73 68.15 246.07 68.27 C 244.88 64.82 243.25 61.12 244.38 57.43 C 244.88 55.55 245.01 53.61 245.08 51.68 C 242.57 52.44 240.48 53.99 238.54 55.69 C 237.43 56.74 235.77 55.75 235.07 54.70 C 234.53 51.31 237.01 48.35 236.98 44.98 C 237.01 42.17 238.46 39.39 237.40 36.62 C 236.35 33.26 237.03 29.74 239.14 26.95 C 240.34 26.97 241.54 26.99 242.75 27.00 C 243.16 29.16 244.45 31.34 243.63 33.57 C 242.51 37.71 243.13 42.03 243.00 46.26 C 243.49 45.88 244.45 45.11 244.93 44.72 C 244.98 42.62 244.92 40.48 245.41 38.42 C 246.67 33.95 244.84 28.82 248.11 24.97 Z" />
<path fill="#de0011" opacity="1.00" d=" M 310.01 24.95 C 320.39 25.37 330.79 24.75 341.18 25.03 C 340.22 33.08 337.23 40.67 335.70 48.61 C 334.46 49.90 332.87 50.78 331.52 51.93 C 334.73 55.23 337.96 58.52 341.26 61.75 C 342.83 63.39 345.14 63.85 347.25 64.43 C 347.03 67.83 343.75 69.93 340.86 71.06 C 335.63 71.28 331.42 67.21 330.86 62.12 C 327.31 64.36 323.00 64.06 319.05 65.04 C 314.81 65.68 311.20 68.33 306.99 69.03 C 305.16 69.53 303.58 67.76 303.93 65.98 C 303.65 62.24 308.61 61.52 309.20 58.21 C 310.22 55.59 310.01 52.76 310.02 50.01 C 309.98 41.66 309.99 33.30 310.01 24.95 M 314.40 34.01 C 315.41 34.77 316.26 36.46 317.78 35.79 C 321.98 34.47 326.41 35.26 330.72 34.90 C 331.41 34.05 331.97 33.12 332.41 32.10 C 327.62 31.97 322.82 31.96 318.03 32.01 C 316.41 31.71 315.45 33.06 314.40 34.01 M 317.30 42.13 C 315.88 42.98 316.03 44.64 315.83 46.06 C 320.60 46.18 325.20 44.47 330.01 44.95 C 330.01 44.22 330.00 42.75 330.00 42.02 C 325.77 42.09 321.52 41.79 317.30 42.13 M 315.68 52.69 C 314.64 55.09 314.73 57.87 314.00 60.40 C 318.22 59.23 320.74 54.97 321.23 50.82 C 319.37 51.41 317.41 51.78 315.68 52.69 M 323.80 59.03 C 325.29 59.00 326.77 58.97 328.27 58.92 C 327.90 57.48 327.44 56.07 326.92 54.68 C 325.94 56.17 324.90 57.62 323.80 59.03 Z" />
<path fill="#de0011" opacity="1.00" d=" M 356.05 28.01 C 361.07 28.66 365.53 24.67 370.61 26.17 C 371.10 26.63 372.08 27.55 372.57 28.01 C 369.14 31.48 364.85 34.17 360.01 35.06 C 356.30 36.28 351.06 35.47 349.57 31.34 C 348.56 29.97 348.76 27.99 350.25 27.05 C 352.22 27.03 354.07 27.95 356.05 28.01 Z" />
<path fill="#de0011" opacity="1.00" d=" M 381.19 26.99 C 384.85 26.96 388.55 26.82 392.14 27.66 C 398.62 26.64 405.34 26.51 411.72 28.21 C 412.14 29.11 412.57 30.00 413.01 30.89 C 410.56 33.04 407.30 34.21 404.04 34.03 C 396.07 33.93 388.09 34.10 380.13 33.95 C 378.95 34.11 377.26 32.42 378.24 31.30 C 379.02 29.74 380.11 28.36 381.19 26.99 Z" />
<path fill="#de0011" opacity="1.00" d=" M 44.25 41.26 C 49.33 36.33 55.93 32.81 62.99 32.00 C 82.28 31.99 101.58 32.02 120.88 31.99 C 119.80 35.17 119.53 38.71 117.45 41.46 C 114.48 46.52 108.30 48.02 102.91 48.94 C 87.40 49.13 71.88 48.88 56.37 49.05 C 55.29 50.18 54.18 51.28 53.05 52.36 C 52.99 58.56 52.94 64.76 53.02 70.96 C 53.00 73.37 54.86 75.19 56.20 77.01 C 62.78 76.95 69.37 77.08 75.95 76.98 C 77.84 76.98 79.38 75.70 81.00 74.90 C 80.99 73.27 81.00 71.63 81.01 70.00 C 86.76 70.01 92.51 69.96 98.26 70.03 C 96.15 75.58 93.94 81.33 89.28 85.29 C 79.80 94.90 64.23 96.71 52.38 90.65 C 43.97 85.40 37.25 76.85 36.20 66.78 C 34.68 57.54 38.50 48.34 44.25 41.26 Z" />
<path fill="#de0011" opacity="1.00" d=" M 368.88 36.77 C 370.46 34.68 373.68 36.74 373.05 39.10 C 374.16 43.52 368.56 45.73 368.98 49.98 C 368.90 54.92 368.84 59.89 369.66 64.76 C 368.27 69.66 362.30 69.35 358.26 68.88 C 357.88 68.41 357.10 67.46 356.71 66.99 C 358.23 65.03 361.10 64.30 361.71 61.64 C 362.39 58.28 361.63 54.77 362.37 51.40 C 362.83 49.94 362.27 48.49 361.99 47.06 C 358.05 48.60 354.22 50.81 350.23 51.94 C 347.55 49.21 349.19 44.76 351.10 41.99 C 357.36 42.40 364.16 41.24 368.88 36.77 Z" />
<path fill="#de0011" opacity="1.00" d=" M 412.04 40.02 C 414.97 40.35 417.49 38.71 420.12 37.73 C 420.18 41.65 418.81 45.47 415.72 47.98 C 411.74 47.89 407.64 48.51 403.79 47.23 C 401.48 53.55 401.35 60.53 402.94 67.03 C 403.04 68.44 402.17 69.69 401.81 71.01 C 399.87 71.00 397.93 71.00 396.00 71.00 C 396.00 63.42 396.00 55.84 396.01 48.26 C 394.94 47.52 394.15 46.26 392.84 45.98 C 386.56 46.92 380.30 48.45 373.90 47.98 C 373.67 45.09 374.42 42.32 376.10 39.95 C 388.08 40.32 400.06 39.81 412.04 40.02 Z" />
<path fill="#de0011" opacity="1.00" d=" M 157.30 47.11 C 163.94 46.47 170.76 47.90 177.28 46.19 C 179.29 45.64 181.30 46.35 183.25 46.75 C 187.39 47.57 191.81 46.15 195.81 47.77 C 194.64 51.53 195.57 55.80 192.89 59.05 C 191.22 59.02 189.56 59.00 187.90 58.97 C 187.92 56.70 188.23 54.46 188.93 52.30 C 188.16 51.56 187.40 50.81 186.66 50.05 C 183.49 49.99 180.33 49.99 177.16 50.00 C 176.57 57.23 173.34 64.96 167.03 69.03 C 162.61 70.68 157.66 71.72 153.13 69.82 C 152.64 68.31 152.15 66.79 151.74 65.24 C 158.25 64.86 165.30 62.86 169.32 57.35 C 171.67 55.52 170.89 52.42 171.01 49.84 C 168.52 50.02 164.91 50.22 164.15 53.14 C 163.46 55.31 162.33 57.30 160.83 59.00 C 158.96 59.00 157.09 59.02 155.23 59.04 C 156.48 55.59 155.73 51.88 156.13 48.31 C 156.43 48.01 157.01 47.41 157.30 47.11 Z" />
<path fill="#de0011" opacity="1.00" d=" M 177.63 59.04 C 185.54 57.60 191.80 63.52 199.05 65.32 C 196.23 70.92 188.33 72.38 183.43 68.62 C 181.28 65.57 179.04 62.52 177.63 59.04 Z" />
<path fill="#de0011" opacity="1.00" d=" M 173.28 81.99 C 173.89 81.99 175.11 81.99 175.72 81.99 C 177.10 86.21 179.14 90.16 180.70 94.31 C 181.39 96.17 182.52 97.84 184.16 99.00 C 181.02 99.01 177.89 99.01 174.75 99.00 C 176.86 98.19 178.18 95.43 175.69 94.13 C 173.50 94.09 170.55 93.17 169.08 95.31 C 168.24 97.11 170.00 98.14 171.25 99.00 C 169.10 99.00 166.94 99.01 164.79 99.00 C 169.35 94.39 170.76 87.78 173.28 81.99 M 171.10 92.00 C 172.36 92.00 173.63 92.00 174.89 92.00 C 174.46 90.68 174.09 89.34 173.66 88.02 C 171.37 87.42 171.96 90.68 171.10 92.00 Z" />
<path fill="#de0011" opacity="1.00" d=" M 240.37 82.25 C 243.34 81.61 246.82 81.63 249.24 83.75 C 252.10 85.77 253.17 89.47 253.03 92.82 C 251.78 97.52 246.94 100.50 242.20 100.00 C 239.80 98.89 236.56 98.15 235.59 95.37 C 233.84 90.69 234.93 83.91 240.37 82.25 M 242.35 83.08 C 238.95 85.93 238.16 91.18 239.79 95.19 C 240.34 97.29 242.18 99.80 244.65 98.92 C 248.21 96.24 248.65 91.41 247.72 87.37 C 246.76 85.27 245.17 82.14 242.35 83.08 Z" />
<path fill="#de0011" opacity="1.00" d=" M 284.63 82.59 C 288.38 81.23 292.81 81.72 296.05 84.12 C 296.02 85.53 295.98 86.94 295.94 88.35 C 294.06 88.10 293.99 86.11 293.21 84.78 C 292.19 84.02 291.06 83.44 289.99 82.78 C 288.06 84.15 284.89 85.12 284.92 87.96 C 284.65 91.47 284.00 96.39 287.96 98.05 C 289.24 99.04 290.73 98.10 292.10 97.89 C 292.06 95.60 292.36 92.94 289.74 92.00 C 292.51 92.00 295.27 92.00 298.04 91.99 C 295.96 94.36 296.08 97.78 293.84 100.05 C 289.07 100.40 283.16 100.05 280.69 95.24 C 278.87 90.99 279.76 84.49 284.63 82.59 Z" />
<path fill="#de0011" opacity="1.00" d=" M 380.40 82.29 C 383.87 81.07 387.41 82.80 390.23 84.75 C 392.53 87.14 392.13 90.74 391.94 93.79 C 390.50 98.37 384.96 101.10 380.38 99.76 C 377.39 98.52 374.87 95.96 374.02 92.81 C 373.30 88.32 375.78 83.37 380.40 82.29 M 382.39 83.25 C 377.84 84.63 379.08 90.31 379.01 93.94 C 378.85 96.51 380.90 98.25 383.00 99.26 C 384.78 98.29 386.69 97.05 386.91 94.83 C 387.12 91.63 386.94 88.43 387.00 85.23 C 385.64 84.30 384.26 82.08 382.39 83.25 Z" />
<path fill="#de0011" opacity="1.00" d=" M 146.59 83.02 C 151.29 83.05 156.02 82.79 160.71 83.14 C 163.86 85.36 161.09 88.98 158.90 90.72 C 160.28 91.23 161.65 91.77 163.03 92.30 C 163.01 93.73 162.99 95.17 162.97 96.61 C 162.18 97.39 161.41 98.18 160.64 98.98 C 156.06 99.01 151.47 99.01 146.88 99.00 C 150.72 95.15 148.41 89.27 148.98 84.45 C 148.38 84.09 147.18 83.38 146.59 83.02 M 152.94 84.00 C 152.95 86.38 152.64 89.06 154.95 90.51 C 156.05 89.42 157.13 88.32 158.21 87.22 C 157.67 86.16 157.14 85.09 156.64 84.01 C 155.41 84.01 154.17 84.00 152.94 84.00 M 153.01 90.74 C 153.34 93.10 151.78 97.45 155.10 98.02 C 158.50 98.58 158.05 94.40 158.08 92.20 C 156.40 91.67 154.72 91.15 153.01 90.74 Z" />
<path fill="#de0011" opacity="1.00" d=" M 184.63 83.01 C 187.00 82.98 189.37 83.00 191.74 83.01 C 194.58 86.36 197.30 89.81 200.00 93.28 C 200.00 90.34 199.98 87.39 199.98 84.44 C 199.38 84.09 198.19 83.38 197.59 83.02 C 199.86 82.96 202.13 82.96 204.40 83.02 C 203.81 83.38 202.61 84.09 202.02 84.45 C 202.00 89.31 202.00 94.17 201.98 99.04 C 201.30 99.02 199.93 98.99 199.25 98.97 C 195.69 94.98 192.73 90.49 189.09 86.59 C 189.14 90.85 187.67 96.42 192.17 99.00 C 189.66 99.01 187.14 99.03 184.63 98.99 C 185.74 98.21 186.88 97.47 188.00 96.72 C 187.99 92.91 187.99 89.09 188.00 85.28 C 186.87 84.52 185.74 83.79 184.63 83.01 Z" />
<path fill="#de0011" opacity="1.00" d=" M 206.88 83.00 C 209.62 83.00 212.37 83.00 215.11 83.00 C 213.02 84.85 212.76 87.53 212.94 90.16 C 214.98 88.67 217.08 87.27 219.11 85.77 C 218.78 84.84 218.44 83.92 218.10 83.00 C 220.55 82.99 223.00 82.96 225.46 83.02 C 222.40 84.36 218.55 86.34 217.89 89.89 C 220.49 93.06 222.73 96.72 226.25 99.00 C 223.90 99.00 221.55 99.00 219.20 99.00 C 217.31 96.40 215.53 93.67 212.97 91.65 C 212.54 94.58 213.61 97.41 216.17 99.00 C 213.08 99.01 209.98 99.00 206.89 99.00 C 210.24 95.92 208.77 91.08 208.98 87.08 C 209.15 85.38 207.73 84.27 206.88 83.00 Z" />
<path fill="#de0011" opacity="1.00" d=" M 255.89 83.00 C 260.60 82.99 265.31 82.99 270.03 83.01 C 270.02 84.46 270.00 85.91 269.98 87.37 C 269.20 86.26 268.46 85.12 267.71 84.00 C 265.80 84.01 263.90 84.00 261.99 84.00 C 262.00 86.10 262.01 88.20 262.06 90.30 C 264.22 89.87 266.06 88.68 267.97 87.66 C 268.00 89.87 268.01 92.07 267.99 94.28 C 266.60 93.05 265.24 91.80 263.88 90.55 C 260.84 92.60 261.65 96.83 264.11 99.00 C 261.37 99.00 258.63 99.00 255.89 99.00 C 259.08 96.19 257.82 91.71 258.02 87.98 C 258.33 85.97 257.08 84.43 255.89 83.00 Z" />
<path fill="#de0011" opacity="1.00" d=" M 299.58 83.02 C 302.30 82.96 305.03 83.00 307.76 82.98 C 306.43 87.10 307.20 91.50 307.00 95.75 C 308.24 96.64 309.25 98.29 311.00 98.07 C 312.74 98.29 313.76 96.64 315.00 95.75 C 314.53 91.49 316.45 86.31 312.88 83.00 C 315.05 82.99 317.23 82.97 319.41 83.02 C 318.81 83.38 317.61 84.09 317.01 84.45 C 316.64 88.90 318.35 94.27 314.78 97.80 C 311.82 100.27 306.97 100.98 304.20 97.78 C 301.17 94.09 302.11 88.90 301.99 84.45 C 301.38 84.09 300.18 83.38 299.58 83.02 Z" />
<path fill="#de0011" opacity="1.00" d=" M 321.88 83.00 C 324.63 83.00 327.37 83.00 330.12 83.00 C 326.75 86.06 328.23 90.92 328.02 94.93 C 327.85 96.62 329.26 97.73 330.11 99.00 C 327.37 99.00 324.62 99.00 321.88 99.00 C 325.08 96.19 323.82 91.71 324.02 87.98 C 324.33 85.97 323.07 84.43 321.88 83.00 Z" />
<path fill="#de0011" opacity="1.00" d=" M 333.97 83.01 C 338.79 83.02 343.60 82.90 348.42 83.11 C 345.24 88.30 341.63 93.27 337.80 98.00 C 340.09 98.00 342.39 97.99 344.70 97.99 C 345.71 96.40 346.73 94.80 348.12 93.51 C 347.73 95.35 347.19 97.16 346.77 99.00 C 342.04 98.98 337.31 99.10 332.58 98.89 C 335.75 93.69 339.37 88.74 343.20 84.00 C 340.89 84.00 338.58 84.01 336.27 84.00 C 335.52 85.12 334.79 86.25 334.02 87.36 C 333.99 85.91 333.97 84.46 333.97 83.01 Z" />
<path fill="#de0011" opacity="1.00" d=" M 350.58 83.02 C 353.78 82.95 356.98 82.99 360.18 83.00 C 358.09 84.40 355.22 87.95 358.32 89.87 C 360.51 89.90 363.49 90.85 364.93 88.65 C 365.67 86.42 364.24 84.58 362.88 83.00 C 365.63 83.00 368.37 83.00 371.12 83.00 C 367.92 85.82 369.17 90.29 368.98 94.03 C 368.67 96.03 369.92 97.56 371.10 99.00 C 367.94 99.00 364.78 99.04 361.62 98.99 C 362.75 98.20 363.92 97.44 365.07 96.68 C 364.82 94.78 365.66 92.30 363.68 91.11 C 361.48 91.11 358.52 90.15 357.07 92.34 C 356.25 95.07 358.05 97.50 360.17 99.00 C 357.07 99.01 353.98 99.00 350.89 99.00 C 354.70 95.14 352.38 89.27 352.97 84.45 C 352.38 84.09 351.18 83.38 350.58 83.02 Z" />
<path fill="#de0011" opacity="1.00" d=" M 394.87 83.00 C 397.62 83.00 400.37 83.00 403.13 83.00 C 400.00 85.75 401.02 90.15 401.08 93.83 C 401.31 96.64 404.77 99.14 407.32 97.42 C 410.89 95.84 409.92 91.15 410.04 87.99 C 410.33 85.97 409.08 84.43 407.88 83.00 C 410.04 82.99 412.21 82.98 414.38 83.01 C 413.26 83.79 412.13 84.52 411.01 85.28 C 411.01 88.75 411.00 92.23 410.99 95.71 C 408.78 97.65 406.42 100.46 403.16 100.03 C 400.68 99.32 398.86 97.39 397.00 95.72 C 396.58 91.47 398.44 86.29 394.87 83.00 Z" />
</g>
</svg>
